<svg id="Layer_1" data-name="Layer 1" xmlns="http://www.w3.org/2000/svg" viewBox="0 0 96 96"><defs><style>.cls-1{fill:#feca2a;}.cls-2{fill:none;stroke:#feca2a;stroke-miterlimit:10;stroke-width:5.25px;}</style></defs><path class="cls-1" d="M40.43,68.81a1.42,1.42,0,0,1,2.07-1.24,13.22,13.22,0,0,0,11.91,0,1.42,1.42,0,0,1,2.09,1.23c0,2.12,0,4.23,0,6.35a1.41,1.41,0,0,1-2.16,1.16c-.66-.54-1.22-1.17-1.83-1.76-1,1.82-1.87,3.75-2.86,5.58a1.4,1.4,0,0,1-2.37,0c-1-1.85-1.88-3.73-2.83-5.58-.65.56-1.19,1.24-1.87,1.77a1.41,1.41,0,0,1-2.15-1.16Q40.42,72,40.43,68.81Z"/><path class="cls-1" d="M66.58,49.41c-1.45-1.25-3-2.42-4.43-3.66.6-9.54-3-19-8.81-26.46a19,19,0,0,0-5.22-4.93,20.26,20.26,0,0,0-5.62,5.49c-5.55,7.38-9,16.62-8.38,25.93-1.44,1.26-3,2.4-4.43,3.67a8.58,8.58,0,0,0-2.52,8c.75,3.45,1.54,6.89,2.32,10.33a2.84,2.84,0,0,0,3.79,1.91,12.2,12.2,0,0,0,2.37-1.87c1.73-1.45,3.33-3,5.12-4.4a11.43,11.43,0,0,0,5.49,2.82,10.73,10.73,0,0,0,9.31-2.89c2.41,2,4.77,4.09,7.19,6.1a2.82,2.82,0,0,0,4.35-1.56c.74-3.47,1.41-6.94,2.1-10.42A8.6,8.6,0,0,0,66.58,49.41ZM50.08,57.1h-4l-8.3-20.67h5l5.37,14.46L53.5,36.43h4.87Z"/><circle class="cls-2" cx="48.05" cy="47.93" r="39.24"/></svg>